<mxfile host="app.diagrams.net" modified="2024-03-21T17:23:24.903Z" agent="Mozilla/5.0 (Windows NT 10.0; Win64; x64) AppleWebKit/537.36 (KHTML, like Gecko) Chrome/122.0.0.0 Safari/537.36 Edg/122.0.0.0" etag="SkUzXIacK515t_iQvM9n" version="24.0.7" type="device">
  <diagram name="Page-1" id="wXCxiJsr6KxRHzQ34bJL">
    <mxGraphModel dx="2066" dy="793" grid="1" gridSize="10" guides="1" tooltips="1" connect="1" arrows="1" fold="1" page="1" pageScale="1" pageWidth="827" pageHeight="1169" math="0" shadow="0">
      <root>
        <mxCell id="0" />
        <mxCell id="1" parent="0" />
        <mxCell id="fcQzJ3YA1GThkZ1bjjhy-1" value="Microcontroller/Soc - Hardware" style="rounded=0;whiteSpace=wrap;html=1;hachureGap=4;fontFamily=Architects Daughter;fontSource=https%3A%2F%2Ffonts.googleapis.com%2Fcss%3Ffamily%3DArchitects%2BDaughter;fillColor=#ffe6cc;strokeColor=#d79b00;" parent="1" vertex="1">
          <mxGeometry x="160" y="650" width="890" height="60" as="geometry" />
        </mxCell>
        <mxCell id="fcQzJ3YA1GThkZ1bjjhy-2" value="Hardware Abstraction Layer" style="rounded=0;whiteSpace=wrap;html=1;hachureGap=4;fontFamily=Architects Daughter;fontSource=https%3A%2F%2Ffonts.googleapis.com%2Fcss%3Ffamily%3DArchitects%2BDaughter;labelPosition=center;verticalLabelPosition=middle;align=center;verticalAlign=top;fillColor=#fff2cc;strokeColor=#d6b656;" parent="1" vertex="1">
          <mxGeometry x="160" y="390" width="890" height="240" as="geometry" />
        </mxCell>
        <mxCell id="fcQzJ3YA1GThkZ1bjjhy-3" value="Board" style="rounded=0;whiteSpace=wrap;html=1;hachureGap=4;fontFamily=Architects Daughter;fontSource=https%3A%2F%2Ffonts.googleapis.com%2Fcss%3Ffamily%3DArchitects%2BDaughter;labelPosition=center;verticalLabelPosition=middle;align=center;verticalAlign=top;fillColor=#e1d5e7;strokeColor=#9673a6;" parent="1" vertex="1">
          <mxGeometry x="190" y="530" width="830" height="60" as="geometry" />
        </mxCell>
        <mxCell id="fcQzJ3YA1GThkZ1bjjhy-4" value="Drivers" style="rounded=0;whiteSpace=wrap;html=1;hachureGap=4;fontFamily=Architects Daughter;fontSource=https%3A%2F%2Ffonts.googleapis.com%2Fcss%3Ffamily%3DArchitects%2BDaughter;fillColor=#f8cecc;strokeColor=#b85450;verticalAlign=top;" parent="1" vertex="1">
          <mxGeometry x="190" y="441" width="830" height="60" as="geometry" />
        </mxCell>
        <mxCell id="fcQzJ3YA1GThkZ1bjjhy-5" value="Applications" style="rounded=0;whiteSpace=wrap;html=1;hachureGap=4;fontFamily=Architects Daughter;fontSource=https%3A%2F%2Ffonts.googleapis.com%2Fcss%3Ffamily%3DArchitects%2BDaughter;verticalAlign=top;fillColor=#d5e8d4;strokeColor=#82b366;" parent="1" vertex="1">
          <mxGeometry x="160" y="129" width="890" height="240" as="geometry" />
        </mxCell>
        <mxCell id="fcQzJ3YA1GThkZ1bjjhy-6" value="Commonly Used Application Library" style="rounded=0;whiteSpace=wrap;html=1;hachureGap=4;fontFamily=Architects Daughter;fontSource=https%3A%2F%2Ffonts.googleapis.com%2Fcss%3Ffamily%3DArchitects%2BDaughter;fillColor=#f5f5f5;fontColor=#333333;strokeColor=#666666;verticalAlign=top;" parent="1" vertex="1">
          <mxGeometry x="190" y="269" width="400" height="60" as="geometry" />
        </mxCell>
        <mxCell id="fcQzJ3YA1GThkZ1bjjhy-7" value="Utilities" style="rounded=0;whiteSpace=wrap;html=1;hachureGap=4;fontFamily=Architects Daughter;fontSource=https%3A%2F%2Ffonts.googleapis.com%2Fcss%3Ffamily%3DArchitects%2BDaughter;fillColor=#dae8fc;strokeColor=#6c8ebf;verticalAlign=top;" parent="1" vertex="1">
          <mxGeometry x="620" y="269" width="400" height="60" as="geometry" />
        </mxCell>
        <mxCell id="fcQzJ3YA1GThkZ1bjjhy-8" value="User Application" style="rounded=0;whiteSpace=wrap;html=1;hachureGap=4;fontFamily=Architects Daughter;fontSource=https%3A%2F%2Ffonts.googleapis.com%2Fcss%3Ffamily%3DArchitects%2BDaughter;verticalAlign=top;" parent="1" vertex="1">
          <mxGeometry x="190" y="179" width="830" height="60" as="geometry" />
        </mxCell>
        <mxCell id="fcQzJ3YA1GThkZ1bjjhy-9" value="GPIO" style="rounded=0;whiteSpace=wrap;html=1;hachureGap=4;fontFamily=Architects Daughter;fontSource=https%3A%2F%2Ffonts.googleapis.com%2Fcss%3Ffamily%3DArchitects%2BDaughter;fillColor=#f8cecc;strokeColor=#b85450;verticalAlign=middle;" parent="1" vertex="1">
          <mxGeometry x="200" y="470" width="60" height="20" as="geometry" />
        </mxCell>
        <mxCell id="fcQzJ3YA1GThkZ1bjjhy-10" value="LED" style="rounded=0;whiteSpace=wrap;html=1;hachureGap=4;fontFamily=Architects Daughter;fontSource=https%3A%2F%2Ffonts.googleapis.com%2Fcss%3Ffamily%3DArchitects%2BDaughter;fillColor=#f5f5f5;fontColor=#333333;strokeColor=#666666;verticalAlign=middle;" parent="1" vertex="1">
          <mxGeometry x="200" y="299" width="60" height="20" as="geometry" />
        </mxCell>
        <mxCell id="fcQzJ3YA1GThkZ1bjjhy-11" value="Button" style="rounded=0;whiteSpace=wrap;html=1;hachureGap=4;fontFamily=Architects Daughter;fontSource=https%3A%2F%2Ffonts.googleapis.com%2Fcss%3Ffamily%3DArchitects%2BDaughter;fillColor=#f5f5f5;fontColor=#333333;strokeColor=#666666;verticalAlign=middle;" parent="1" vertex="1">
          <mxGeometry x="270" y="299" width="60" height="20" as="geometry" />
        </mxCell>
        <mxCell id="fcQzJ3YA1GThkZ1bjjhy-12" value="Input Button" style="rounded=0;whiteSpace=wrap;html=1;hachureGap=4;fontFamily=Architects Daughter;fontSource=https%3A%2F%2Ffonts.googleapis.com%2Fcss%3Ffamily%3DArchitects%2BDaughter;verticalAlign=middle;" parent="1" vertex="1">
          <mxGeometry x="200" y="209" width="130" height="20" as="geometry" />
        </mxCell>
        <mxCell id="fcQzJ3YA1GThkZ1bjjhy-13" value="Status LED" style="rounded=0;whiteSpace=wrap;html=1;hachureGap=4;fontFamily=Architects Daughter;fontSource=https%3A%2F%2Ffonts.googleapis.com%2Fcss%3Ffamily%3DArchitects%2BDaughter;verticalAlign=middle;" parent="1" vertex="1">
          <mxGeometry x="340" y="209" width="130" height="20" as="geometry" />
        </mxCell>
        <mxCell id="fcQzJ3YA1GThkZ1bjjhy-14" value="Linker Script" style="rounded=0;whiteSpace=wrap;html=1;hachureGap=4;fontFamily=Architects Daughter;fontSource=https%3A%2F%2Ffonts.googleapis.com%2Fcss%3Ffamily%3DArchitects%2BDaughter;labelPosition=center;verticalLabelPosition=middle;align=center;verticalAlign=middle;fillColor=#e1d5e7;strokeColor=#9673a6;" parent="1" vertex="1">
          <mxGeometry x="200" y="560" width="110" height="20" as="geometry" />
        </mxCell>
        <mxCell id="fcQzJ3YA1GThkZ1bjjhy-15" value="Start-up Script" style="rounded=0;whiteSpace=wrap;html=1;hachureGap=4;fontFamily=Architects Daughter;fontSource=https%3A%2F%2Ffonts.googleapis.com%2Fcss%3Ffamily%3DArchitects%2BDaughter;labelPosition=center;verticalLabelPosition=middle;align=center;verticalAlign=middle;fillColor=#e1d5e7;strokeColor=#9673a6;" parent="1" vertex="1">
          <mxGeometry x="330" y="560" width="110" height="20" as="geometry" />
        </mxCell>
      </root>
    </mxGraphModel>
  </diagram>
</mxfile>
